Coordinates
nRows=8
nColumns=38

# SIMM Motion File Header:
name Coordinates
datacolumns 38
datarows 8
otherdata 1
range 0.32550000000000001000 0.33250000000000002000

Units are S.I. units (second, meters, Newtons, ...)
Angles are in degrees.

endheader
time	pelvis_tilt	pelvis_list	pelvis_rotation	pelvis_tx	pelvis_ty	pelvis_tz	hip_flexion_r	hip_adduction_r	hip_rotation_r	knee_angle_r	ankle_angle_r	subtalar_angle_r	mtp_angle_r	hip_flexion_l	hip_adduction_l	hip_rotation_l	knee_angle_l	ankle_angle_l	subtalar_angle_l	mtp_angle_l	lumbar_extension	lumbar_bending	lumbar_rotation	arm_flex_r	arm_add_r	arm_rot_r	elbow_flex_r	pro_sup_r	wrist_flex_r	wrist_dev_r	arm_flex_l	arm_add_l	arm_rot_l	elbow_flex_l	pro_sup_l	wrist_flex_l	wrist_dev_l
      0.32550000000000001000	     -3.58674682172554780000	     -4.35760419027681770000	     -0.28409777296128963000	      0.94298337801385479000	      1.04399106780040120000	     -0.35392934916415925000	     28.58744318687120900000	      9.24451661759270320000	     -0.60580236880191074000	     -9.43608771803322280000	    -14.07835742683601100000	      0.00000000000000000000	      0.00000000000000000000	    -15.96296304811986600000	      1.57962477562663330000	     -4.19016113477115320000	    -60.76856434155045900000	    -15.39636163888962100000	      0.00000000000000000000	      0.00000000000000000000	      0.14958530638602252000	      6.29452105067483550000	    -13.21252375628784600000	    -48.24020298620271800000	    -15.08174841843889500000	    -25.51414932932981100000	    104.41182517045229000000	     92.18589611151118400000	      0.00000000000000000000	      0.00000000000000000000	    -19.28109526792993500000	    -14.81494016092395100000	      3.89143722178477210000	    133.30483091968100000000	     97.33551995161317900000	      0.00000000000000000000	      0.00000000000000000000
      0.32650000000000001000	     -3.56913026038727970000	     -4.40014017453741870000	     -0.25160965212207737000	      0.94292919521841112000	      1.04352420748477370000	     -0.35399649822231355000	     28.47747156410547100000	      9.30326055805692680000	     -0.76109257643074890000	     -9.51581485109798560000	    -14.15568913557457600000	     -0.00000000000000000154	     -0.00000000000000000076	    -15.71716898215085400000	      1.47611259063133840000	     -4.19270533243500940000	    -61.50300783907825100000	    -15.16905796431295500000	      0.00000000000000000045	      0.00000000000000000047	      0.11429713457737946000	      6.35887732198700470000	    -13.21535914101257200000	    -48.05697394572364800000	    -15.07586272088856700000	    -25.45173500700405000000	    104.38376573392753000000	     92.15532297951269000000	      0.00000000000000000011	      0.00000000000000000007	    -19.40666863442110900000	    -14.86273960397013700000	      3.83575315008436220000	    133.16318642884889000000	     97.20860615247156000000	     -0.00000000000000000031	      0.00000000000000000046
      0.32750000000000001000	     -3.55173591264693430000	     -4.44293048822080740000	     -0.21860409496753913000	      0.94287242706697472000	      1.04304789184835500000	     -0.35406232925446085000	     28.36931016452554400000	      9.36270455261079880000	     -0.90928613034748618000	     -9.60699531762262810000	    -14.22375311415142800000	     -0.00000000000000000274	      0.00000000000000000034	    -15.46926745806727300000	      1.37184092924689270000	     -4.19252495610803690000	    -62.23601053606591900000	    -14.93580704397326800000	      0.00000000000000000323	      0.00000000000000000401	      0.07909540294616571000	      6.42320451969577100000	    -13.21674127555017000000	    -47.87268636268162700000	    -15.06970691324571700000	    -25.38933805781760000000	    104.35457287880539000000	     92.12568050615220700000	     -0.00000000000000000010	     -0.00000000000000000149	    -19.53182736953384000000	    -14.91139605084765100000	      3.77990947449915640000	    133.01982695153745000000	     97.07934219676133100000	     -0.00000000000000000065	      0.00000000000000000017
      0.32850000000000001000	     -3.53436927559797810000	     -4.48599249996665160000	     -0.18518575352478805000	      0.94281317108445017000	      1.04256243178638640000	     -0.35412664692768386000	     28.26263752347774300000	      9.42296579295131310000	     -1.04992502776933080000	     -9.70939796291340860000	    -14.28213020122453800000	     -0.00000000000000000313	      0.00000000000000000062	    -15.21950649380816500000	      1.26679581979418270000	     -4.18986348072589450000	    -62.96743249433333700000	    -14.69673945268486300000	      0.00000000000000000747	      0.00000000000000000801	      0.04374561673839021800	      6.48752785273686250000	    -13.21649205335516800000	    -47.68735661607237100000	    -15.06322309022178100000	    -25.32698906237162400000	    104.32429018237585000000	     92.09689588258302700000	     -0.00000000000000000041	     -0.00000000000000000410	    -19.65648508646705000000	    -14.96092317749351600000	      3.72388020641634210000	    132.87485111721335000000	     96.94795066019553100000	     -0.00000000000000000011	      0.00000000000000000048
      0.32950000000000002000	     -3.51648755071688160000	     -4.52937700649702000000	     -0.15146716043423439000	      0.94275161415699338000	      1.04206867067797340000	     -0.35418924012551833000	     28.15669464888990700000	      9.48422151915561070000	     -1.18254168576268380000	     -9.82268036020783160000	    -14.32995091165360100000	     -0.00000000000000000542	     -0.00000000000000000146	    -14.96856012427443600000	      1.16092812619734120000	     -4.18502589889736940000	    -63.69701710755649100000	    -14.45206584239306700000	      0.00000000000000001166	      0.00000000000000001116	      0.00760897344549077690	      6.55191228405423850000	    -13.21437969551254100000	    -47.50095143871814700000	    -15.05633997475147400000	    -25.26471782322406100000	    104.29299139853610000000	     92.06887738860730500000	     -0.00000000000000000086	     -0.00000000000000000595	    -19.78048019614636400000	    -15.01135072478826700000	      3.66762884868396720000	    132.72839096334278000000	     96.81469300171380600000	      0.00000000000000000037	      0.00000000000000000106
      0.33050000000000002000	     -3.49772027200922600000	     -4.57309704921607360000	     -0.11753639242439094000	      0.94268788545738580000	      1.04156718347893240000	     -0.35424994586169872000	     28.05094395907898200000	      9.54659633502258840000	     -1.30673079610470430000	     -9.94657235381585810000	    -14.36621894903990400000	     -0.00000000000000001073	     -0.00000000000000000313	    -14.71688132965623200000	      1.05422308776131920000	     -4.17825599891817400000	    -64.42457704214416500000	    -14.20200289275349300000	      0.00000000000000001485	      0.00000000000000001323	     -0.02975278018931652700	      6.61638130827908280000	    -13.21021433448571400000	    -47.31346052706121700000	    -15.04898659563627600000	    -25.20255266395358300000	    104.26073900248670000000	     92.04153771871044400000	     -0.00000000000000000139	     -0.00000000000000000876	    -19.90369104704193500000	    -15.06270476969103600000	      3.61111728821798830000	    132.58057612741939000000	     96.67985451851238600000	     -0.00000000000000000112	      0.00000000000000000069
      0.33150000000000002000	     -3.47783781691993400000	     -4.61713568707290100000	     -0.08348868123684458100	      0.94262206317434005000	      1.04105832729750690000	     -0.35430860455228175000	     27.94503412063845700000	      9.61018264992649840000	     -1.42214261441542030000	    -10.08087348335622300000	    -14.38992111773005800000	     -0.00000000000000001564	     -0.00000000000000000517	    -14.46474908934466300000	      0.94670072988675613000	     -4.16977183864007640000	    -65.14997236200723300000	    -13.94678035706373400000	      0.00000000000000001531	      0.00000000000000001341	     -0.06861811229611430900	      6.68092651003205960000	    -13.20381439518729200000	    -47.12489322781250000000	    -15.04109466388434100000	    -25.14052183436794200000	    104.22758821483181000000	     92.01479192896528000000	     -0.00000000000000000103	     -0.00000000000000001226	    -20.02602658365575300000	    -15.11500663546225300000	      3.55430721028813010000	    132.43153284697459000000	     96.54374259161271300000	     -0.00000000000000000308	      0.00000000000000000031
      0.33250000000000002000	     -3.45672649405737160000	     -4.66147079862797310000	     -0.04943738821989762700	      0.94255418671579871000	      1.04054228134950870000	     -0.35436504212639236000	     27.83876729963329700000	      9.67506950492462890000	     -1.52848658707977330000	    -10.22544071290778200000	    -14.40007447661023600000	     -0.00000000000000002206	     -0.00000000000000000917	    -14.21230376696741400000	      0.83839039454859499000	     -4.15978790914992920000	    -65.87310195393965300000	    -13.68663555834696100000	      0.00000000000000001696	      0.00000000000000001276	     -0.10913586202359617000	      6.74553583629335930000	    -13.19499368443001700000	    -46.93527834866821300000	    -15.03260314128293600000	    -25.07865672013198500000	    104.19359207235323000000	     91.98855381965877600000	     -0.00000000000000000069	     -0.00000000000000001615	    -20.14741857764973800000	    -15.16826866617627800000	      3.49716258093446930000	    132.28138180519423000000	     96.40668702634280900000	     -0.00000000000000000549	     -0.00000000000000000027
